<?xml version="1.0" encoding="UTF-8"?>
<!DOCTYPE svg PUBLIC "-//W3C//DTD SVG 1.1//EN" "http://www.w3.org/Graphics/SVG/1.1/DTD/svg11.dtd">
<svg xmlns="http://www.w3.org/2000/svg" version="1.1" width="451px" height="336px" style="shape-rendering:geometricPrecision; text-rendering:geometricPrecision; image-rendering:optimizeQuality; fill-rule:evenodd; clip-rule:evenodd" xmlns:xlink="http://www.w3.org/1999/xlink">
<g><path style="opacity:0.006" fill="#fdfcfc" d="M 3.5,-0.5 C 92.1667,-0.5 180.833,-0.5 269.5,-0.5C 268.391,0.28997 267.058,0.78997 265.5,1C 269.5,1.33333 273.5,1.66667 277.5,2C 270.003,2.05709 262.669,3.05709 255.5,5C 258.554,7.19388 261.888,8.86055 265.5,10C 272.624,10.0477 279.624,10.8811 286.5,12.5C 287.252,15.2629 288.252,17.9296 289.5,20.5C 285.663,22.5928 282.329,25.4261 279.5,29C 281.794,32.4965 284.794,33.6631 288.5,32.5C 291.454,41.96 296.954,49.6267 305,55.5C 309.609,60.7826 314.275,66.1159 319,71.5C 320.925,76.6884 324.258,80.6884 329,83.5C 329.562,85.8661 329.396,88.1994 328.5,90.5C 328.876,92.3829 329.876,93.8829 331.5,95C 330.672,95.9147 329.672,96.5814 328.5,97C 323.53,97.8856 318.53,98.5523 313.5,99C 313.167,99.3333 312.833,99.6667 312.5,100C 318.601,101.813 324.768,101.98 331,100.5C 335.853,101.058 340.686,101.724 345.5,102.5C 348.975,101.714 349.308,100.214 346.5,98C 347.873,97.1251 349.373,96.6251 351,96.5C 354.992,97.4126 358.492,99.2459 361.5,102C 370.335,102.722 378.002,100.055 384.5,94C 391.424,90.8421 398.424,90.6755 405.5,93.5C 407.839,93.3308 410.006,92.6642 412,91.5C 412.925,92.0465 413.758,92.7132 414.5,93.5C 413.263,94.2807 412.263,95.2807 411.5,96.5C 417.287,98.2253 422.287,101.225 426.5,105.5C 431.81,103.278 432.477,100.278 428.5,96.5C 435.057,94.571 441.557,92.571 448,90.5C 448.645,84.3271 449.478,78.3271 450.5,72.5C 450.5,107.833 450.5,143.167 450.5,178.5C 449.442,176.192 448.276,173.858 447,171.5C 444.872,198.641 430.372,210.807 403.5,208C 396.417,205.882 391.584,201.382 389,194.5C 383.797,178.03 383.13,161.364 387,144.5C 391.34,128.175 401.84,121.675 418.5,125C 427.469,128.301 434.303,134.134 439,142.5C 441.923,148.015 444.59,153.682 447,159.5C 447.667,140.833 447.667,122.167 447,103.5C 443.909,108.014 440.575,112.347 437,116.5C 421.892,100.26 404.392,97.0933 384.5,107C 355.467,130.612 346.3,160.445 357,196.5C 363.454,214.586 375.621,227.086 393.5,234C 424.76,239.231 443.76,226.398 450.5,195.5C 450.5,242.167 450.5,288.833 450.5,335.5C 449.833,335.5 449.167,335.5 448.5,335.5C 447.833,334.167 447.167,334.167 446.5,335.5C 446.167,335.5 445.833,335.5 445.5,335.5C 444.653,334.034 443.32,333.2 441.5,333C 441.833,332.667 442.167,332.333 442.5,332C 439.786,330.683 437.119,330.516 434.5,331.5C 429.433,330.993 424.433,330.16 419.5,329C 416.367,328.089 415.367,326.256 416.5,323.5C 389.747,325.492 362.914,327.826 336,330.5C 322.717,331.124 310.383,328.124 299,321.5C 298.999,318.303 299.499,315.137 300.5,312C 300.646,309.966 299.98,308.299 298.5,307C 295.945,305.556 293.279,304.389 290.5,303.5C 285.413,304.775 280.413,304.442 275.5,302.5C 275,301.5 274.5,300.5 274,299.5C 269.167,303 264.333,306.5 259.5,310C 260.28,311.073 260.113,312.24 259,313.5C 257.371,316.626 255.205,319.293 252.5,321.5C 253.723,322.614 255.056,322.781 256.5,322C 258.443,320.445 260.61,319.278 263,318.5C 264.261,318.759 265.261,319.426 266,320.5C 268.063,323.054 269.897,325.72 271.5,328.5C 270.449,330.532 268.783,331.865 266.5,332.5C 267.025,333.192 267.692,333.692 268.5,334C 266.942,334.21 265.609,334.71 264.5,335.5C 234.167,335.5 203.833,335.5 173.5,335.5C 210.519,333.659 243.519,321.159 272.5,298C 259.019,302.828 245.352,307.495 231.5,312C 174.231,320.361 126.731,302.861 89,259.5C 56.9458,216.75 48.9458,169.75 65,118.5C 87.4659,63.7078 127.966,31.5411 186.5,22C 203.321,20.7127 219.988,21.7127 236.5,25C 248.352,28.8384 260.019,32.8384 271.5,37C 227.348,2.91878 178.015,-7.41455 123.5,6C 51.1655,29.1633 9.83214,78.33 -0.5,153.5C -0.5,102.833 -0.5,52.1667 -0.5,1.5C 0.995216,1.01131 2.32855,0.344644 3.5,-0.5 Z M 70.5,4.5 C 74.5138,4.33449 78.5138,4.50115 82.5,5C 78.7829,7.93619 74.7829,8.60286 70.5,7C 69.4019,6.23029 69.4019,5.39695 70.5,4.5 Z M 2.5,5.5 C 3.74975,5.57735 4.58309,6.24402 5,7.5C 5.35581,15.5868 6.35581,23.5868 8,31.5C 8.27393,34.7145 9.60726,37.3812 12,39.5C 14.1641,35.6848 16.3307,31.8515 18.5,28C 22.5048,27.8555 26.3381,27.0221 30,25.5C 36.0578,26.7173 42.0578,26.384 48,24.5C 49.0588,24.6301 49.8921,25.1301 50.5,26C 44.5,31.6667 38.5,37.3333 32.5,43C 26.8368,44.8951 22.1702,48.2285 18.5,53C 14.2908,54.1893 10.6242,53.356 7.5,50.5C 5.04082,51.791 3.54082,53.791 3,56.5C 1.1833,39.524 1.01663,22.524 2.5,5.5 Z M 217.5,64.5 C 221.273,64.2633 224.94,64.7633 228.5,66C 240.371,71.5305 250.871,79.0305 260,88.5C 261.574,92.0353 262.241,95.702 262,99.5C 257.166,101.02 252.166,101.687 247,101.5C 240.95,100.924 234.95,100.924 229,101.5C 226.611,101.518 224.444,100.851 222.5,99.5C 223.313,98.1861 224.313,97.0195 225.5,96C 224.833,95.3333 224.167,94.6667 223.5,94C 219.12,92.8217 214.787,91.4883 210.5,90C 209.074,87.1556 207.574,84.3223 206,81.5C 204.401,72.0055 208.234,66.3389 217.5,64.5 Z M 293.5,99.5 C 296.137,101.154 295.803,101.654 292.5,101C 293.056,100.617 293.389,100.117 293.5,99.5 Z M 439.5,104.5 C 440.675,104.281 441.675,104.614 442.5,105.5C 441.214,108.284 439.381,110.617 437,112.5C 434.888,111.392 433.054,109.892 431.5,108C 434.501,107.262 437.168,106.096 439.5,104.5 Z M 93.5,122.5 C 96.7935,122.259 99.7935,123.092 102.5,125C 112.358,133.55 117.858,144.383 119,157.5C 125.444,169.139 130.111,181.473 133,194.5C 137.326,198.137 138.326,202.47 136,207.5C 130.53,211.964 126.197,217.297 123,223.5C 122.333,225.5 122.333,227.5 123,229.5C 124.643,231.977 126.476,234.31 128.5,236.5C 125.112,240.477 121.112,241.311 116.5,239C 112.419,232.289 106.419,228.622 98.5,228C 95.7132,225.833 94.8799,222.999 96,219.5C 101.554,215.897 104.387,210.73 104.5,204C 102.757,197.431 101.423,190.764 100.5,184C 105.425,166.523 101.258,151.69 88,139.5C 84.7266,132.278 86.5599,126.611 93.5,122.5 Z M 217.5,126.5 C 222.429,127.82 223.596,130.82 221,135.5C 220.439,136.022 219.772,136.355 219,136.5C 215.199,133.615 214.699,130.281 217.5,126.5 Z M 411.5,148.5 C 418.055,149.89 422.222,153.89 424,160.5C 425.809,168.738 426.476,177.071 426,185.5C 424.881,190.239 422.381,194.072 418.5,197C 414.24,198.715 410.073,200.549 406,202.5C 403.186,202.592 400.853,201.592 399,199.5C 395.779,185.685 396.446,172.018 401,158.5C 403.139,153.522 406.639,150.189 411.5,148.5 Z M 170.5,125.5 C 175.602,129.257 175.768,133.257 171,137.5C 165.358,133.51 165.192,129.51 170.5,125.5 Z M 215.5,163.5 C 217.411,163.574 218.578,164.574 219,166.5C 222.375,177.366 223.041,188.366 221,199.5C 216.544,205.625 211.711,211.458 206.5,217C 204.5,217.667 202.5,217.667 200.5,217C 193.872,209.044 192.706,200.211 197,190.5C 201.795,180.542 207.962,171.542 215.5,163.5 Z M 257.5,203.5 C 259.017,203.511 260.184,204.177 261,205.5C 261.892,208.284 263.058,210.95 264.5,213.5C 264,213.833 263.5,214.167 263,214.5C 260.315,212.825 258.315,210.492 257,207.5C 256.805,206.181 256.972,204.847 257.5,203.5 Z M 444.5,224.5 C 446.112,225.452 447.612,225.786 449,225.5C 448.737,229.408 448.904,233.408 449.5,237.5C 449.439,240.903 448.939,244.236 448,247.5C 444.706,250.311 441.706,249.978 439,246.5C 438.667,243.5 438.333,240.5 438,237.5C 436.391,236.853 434.891,236.02 433.5,235C 437.668,231.998 441.335,228.498 444.5,224.5 Z M 219.5,231.5 C 229.757,232.309 240.09,232.809 250.5,233C 252.608,233.36 254.608,234.027 256.5,235C 254.391,236.141 252.558,237.641 251,239.5C 249.773,244.201 247.606,248.368 244.5,252C 240.664,254.084 236.997,256.417 233.5,259C 227.48,261.677 221.313,262.51 215,261.5C 213.955,256.685 211.955,252.352 209,248.5C 209.398,244.464 209.231,240.464 208.5,236.5C 209.09,235.201 210.09,234.368 211.5,234C 214.31,233.218 216.977,232.384 219.5,231.5 Z M 415.5,263.5 C 421.742,263.429 424.409,266.596 423.5,273C 423.33,282.891 419.163,285.391 411,280.5C 409,276.5 409,272.5 411,268.5C 412.707,266.963 414.207,265.296 415.5,263.5 Z"/></g>
<g><path style="opacity:0.004" fill="#fefffe" d="M 441.5,-0.5 C 441.833,-0.5 442.167,-0.5 442.5,-0.5C 442.315,0.170143 441.981,0.170143 441.5,-0.5 Z"/></g>
<g><path style="opacity:0.994" fill="#020202" d="M 173.5,335.5 C 167.5,335.5 161.5,335.5 155.5,335.5C 90.5622,327.79 43.3955,294.79 14,236.5C 5.99309,217.143 1.15976,197.143 -0.5,176.5C -0.5,168.833 -0.5,161.167 -0.5,153.5C 9.83214,78.33 51.1655,29.1633 123.5,6C 178.015,-7.41455 227.348,2.91878 271.5,37C 260.019,32.8384 248.352,28.8384 236.5,25C 219.988,21.7127 203.321,20.7127 186.5,22C 127.966,31.5411 87.4659,63.7078 65,118.5C 48.9458,169.75 56.9458,216.75 89,259.5C 126.731,302.861 174.231,320.361 231.5,312C 245.352,307.495 259.019,302.828 272.5,298C 243.519,321.159 210.519,333.659 173.5,335.5 Z"/></g>
<g><path style="opacity:0.004" fill="#fefffe" d="M 450.5,3.5 C 450.5,8.83333 450.5,14.1667 450.5,19.5C 449.78,15.3002 449.114,10.9669 448.5,6.5C 448.942,5.26133 449.609,4.26133 450.5,3.5 Z"/></g>
<g><path style="opacity:0.004" fill="#fefffe" d="M 356.5,11.5 C 362.96,11.1502 369.293,11.8169 375.5,13.5C 376.262,14.6283 376.929,15.7949 377.5,17C 380.656,17.9372 383.489,19.4372 386,21.5C 385.865,24.9383 387.032,27.7717 389.5,30C 392.5,31.5 395.5,33 398.5,34.5C 399.521,35.0016 399.688,35.6683 399,36.5C 393.93,37.4513 389.43,39.618 385.5,43C 374.856,43.5156 365.856,39.8489 358.5,32C 353.167,29.6667 347.833,27.3333 342.5,25C 340.981,23.6487 339.648,22.1487 338.5,20.5C 342.874,14.2405 348.874,11.2405 356.5,11.5 Z"/></g>
<g><path style="opacity:1" fill="#a8241f" d="M 249.5,36.5 C 240.472,34.7675 231.472,32.9341 222.5,31C 209.167,30.3333 195.833,30.3333 182.5,31C 173.469,33.0665 164.469,35.2332 155.5,37.5C 175.96,29.3897 197.293,26.5563 219.5,29C 229.931,30.3132 239.931,32.8132 249.5,36.5 Z"/></g>
<g><path style="opacity:0.831" fill="#ab3631" d="M 249.5,36.5 C 254.223,37.3697 258.556,39.0363 262.5,41.5C 257.737,40.6054 253.403,38.9387 249.5,36.5 Z"/></g>
<g><path style="opacity:1" fill="#c40606" d="M 249.5,36.5 C 253.403,38.9387 257.737,40.6054 262.5,41.5C 262.833,41.5 263.167,41.5 263.5,41.5C 263.414,42.4959 263.748,43.3292 264.5,44C 271.305,47.3224 277.972,50.8224 284.5,54.5C 289.071,56.7376 293.071,59.7376 296.5,63.5C 300.601,69.2808 305.601,74.6142 311.5,79.5C 313.464,81.9857 314.798,84.819 315.5,88C 314.328,88.4186 313.328,89.0853 312.5,90C 298.5,90.6667 284.5,90.6667 270.5,90C 269.193,87.5198 267.193,86.0198 264.5,85.5C 254.236,74.5554 242.569,65.5554 229.5,58.5C 226.958,56.5813 224.291,54.7479 221.5,53C 216.915,53.205 214.581,51.3717 214.5,47.5C 206.96,48.9554 199.627,48.122 192.5,45C 180.5,44.3333 168.5,44.3333 156.5,45C 155.584,45.2784 154.918,45.7784 154.5,46.5C 149.478,46.7823 144.478,46.949 139.5,47C 142.491,45.0348 145.157,42.8682 147.5,40.5C 149.936,39.129 152.603,38.129 155.5,37.5C 164.469,35.2332 173.469,33.0665 182.5,31C 195.833,30.3333 209.167,30.3333 222.5,31C 231.472,32.9341 240.472,34.7675 249.5,36.5 Z"/></g>
<g><path style="opacity:0.902" fill="#a92724" d="M 263.5,41.5 C 271.039,45.0958 278.039,49.4291 284.5,54.5C 277.972,50.8224 271.305,47.3224 264.5,44C 263.748,43.3292 263.414,42.4959 263.5,41.5 Z"/></g>
<g><path style="opacity:1" fill="#ad1f1a" d="M 147.5,40.5 C 145.157,42.8682 142.491,45.0348 139.5,47C 144.478,46.949 149.478,46.7823 154.5,46.5C 142.405,50.0317 130.405,53.865 118.5,58C 127.226,50.6359 136.892,44.8025 147.5,40.5 Z"/></g>
<g><path style="opacity:1" fill="#ad2621" d="M 229.5,58.5 C 205.639,47.7969 180.639,43.7969 154.5,46.5C 154.918,45.7784 155.584,45.2784 156.5,45C 168.5,44.3333 180.5,44.3333 192.5,45C 199.627,48.122 206.96,48.9554 214.5,47.5C 214.581,51.3717 216.915,53.205 221.5,53C 224.291,54.7479 226.958,56.5813 229.5,58.5 Z"/></g>
<g><path style="opacity:0.004" fill="#fefffe" d="M 363.5,65.5 C 367.346,65.545 371.013,66.3783 374.5,68C 376.332,69.4886 377.165,71.322 377,73.5C 372.609,77.1422 367.776,77.9755 362.5,76C 356.958,71.7182 357.292,68.2182 363.5,65.5 Z"/></g>
<g><path style="opacity:0.969" fill="#a92521" d="M 296.5,63.5 C 302.171,68.1718 307.171,73.5052 311.5,79.5C 305.601,74.6142 300.601,69.2808 296.5,63.5 Z"/></g>
<g><path style="opacity:0.804" fill="#a51918" d="M 311.5,79.5 C 314.933,82.6012 317.6,86.2679 319.5,90.5C 303.675,91.4964 287.675,91.8297 271.5,91.5C 268.573,90.2427 266.239,88.2427 264.5,85.5C 267.193,86.0198 269.193,87.5198 270.5,90C 284.5,90.6667 298.5,90.6667 312.5,90C 313.328,89.0853 314.328,88.4186 315.5,88C 314.798,84.819 313.464,81.9857 311.5,79.5 Z"/></g>
<g><path style="opacity:0.302" fill="#f0a9ab" d="M 319.5,90.5 C 320.043,90.56 320.376,90.8933 320.5,91.5C 304.005,92.8268 287.672,92.8268 271.5,91.5C 287.675,91.8297 303.675,91.4964 319.5,90.5 Z"/></g>
<g><path style="opacity:0.991" fill="#040404" d="M 450.5,178.5 C 450.5,184.167 450.5,189.833 450.5,195.5C 443.76,226.398 424.76,239.231 393.5,234C 375.621,227.086 363.454,214.586 357,196.5C 346.3,160.445 355.467,130.612 384.5,107C 404.392,97.0933 421.892,100.26 437,116.5C 440.575,112.347 443.909,108.014 447,103.5C 447.667,122.167 447.667,140.833 447,159.5C 444.59,153.682 441.923,148.015 439,142.5C 434.303,134.134 427.469,128.301 418.5,125C 401.84,121.675 391.34,128.175 387,144.5C 383.13,161.364 383.797,178.03 389,194.5C 391.584,201.382 396.417,205.882 403.5,208C 430.372,210.807 444.872,198.641 447,171.5C 448.276,173.858 449.442,176.192 450.5,178.5 Z M 439.5,104.5 C 437.168,106.096 434.501,107.262 431.5,108C 433.054,109.892 434.888,111.392 437,112.5C 439.381,110.617 441.214,108.284 442.5,105.5C 441.675,104.614 440.675,104.281 439.5,104.5 Z"/></g>
<g><path style="opacity:0.8" fill="#9e3c3b" d="M 168.5,107.5 C 158.355,106.168 147.855,105.501 137,105.5C 126.328,105.5 115.828,105.833 105.5,106.5C 104.957,106.44 104.624,106.107 104.5,105.5C 126.156,104.5 147.823,104.167 169.5,104.5C 169.737,105.791 169.404,106.791 168.5,107.5 Z"/></g>
<g><path style="opacity:0.787" fill="#993230" d="M 216.5,104.5 C 217.942,105.82 218.608,107.486 218.5,109.5C 216.833,111.5 215.167,113.5 213.5,115.5C 215.017,112.413 215.684,109.079 215.5,105.5C 201.817,105.167 188.15,105.501 174.5,106.5C 176.038,108.243 177.038,110.243 177.5,112.5C 175.503,110.487 173.836,108.154 172.5,105.5C 187.152,104.501 201.818,104.167 216.5,104.5 Z"/></g>
<g><path style="opacity:0.984" fill="#ad1816" d="M 168.5,107.5 C 167.974,109.23 166.974,110.564 165.5,111.5C 165.421,110.07 165.754,108.736 166.5,107.5C 147.167,106.167 127.833,106.167 108.5,107.5C 109.5,109.5 110.5,111.5 111.5,113.5C 112.651,114.731 113.817,114.731 115,113.5C 115.353,114.672 115.187,115.838 114.5,117C 116.571,120.309 118.238,123.809 119.5,127.5C 114.092,121.024 109.425,114.024 105.5,106.5C 115.828,105.833 126.328,105.5 137,105.5C 147.855,105.501 158.355,106.168 168.5,107.5 Z"/></g>
<g><path style="opacity:0.99" fill="#020202" d="M 216.5,104.5 C 234.5,104.5 252.5,104.5 270.5,104.5C 273.064,123.406 276.564,142.072 281,160.5C 284.122,141.814 287.288,123.147 290.5,104.5C 310.503,104.333 330.503,104.5 350.5,105C 343.876,114.413 337.376,123.913 331,133.5C 330.333,155.833 330.333,178.167 331,200.5C 337.376,210.087 343.876,219.587 350.5,229C 329.159,229.833 307.826,229.666 286.5,228.5C 292.691,219.444 298.358,210.111 303.5,200.5C 304.664,174.003 304.83,147.336 304,120.5C 302.509,127.121 301.342,133.788 300.5,140.5C 295.087,170.128 289.754,199.794 284.5,229.5C 279.5,229.5 274.5,229.5 269.5,229.5C 263.823,195.768 257.823,162.102 251.5,128.5C 251.291,127.078 250.791,125.745 250,124.5C 249.17,150.003 249.337,175.337 250.5,200.5C 256.114,210.225 262.114,219.725 268.5,229C 250.833,229.667 233.167,229.667 215.5,229C 222.124,219.587 228.624,210.087 235,200.5C 235.667,178.167 235.667,155.833 235,133.5C 229.637,125.322 224.137,117.322 218.5,109.5C 218.608,107.486 217.942,105.82 216.5,104.5 Z M 257.5,203.5 C 256.972,204.847 256.805,206.181 257,207.5C 258.315,210.492 260.315,212.825 263,214.5C 263.5,214.167 264,213.833 264.5,213.5C 263.058,210.95 261.892,208.284 261,205.5C 260.184,204.177 259.017,203.511 257.5,203.5 Z"/></g>
<g><path style="opacity:1" fill="#b01d19" d="M 213.5,116.5 C 211.163,119.681 208.996,123.014 207,126.5C 203.992,135.56 201.158,144.56 198.5,153.5C 198.176,149.445 198.509,145.445 199.5,141.5C 201.479,137.239 203.146,132.905 204.5,128.5C 203.58,126.214 203.58,123.881 204.5,121.5C 205.833,121.5 207.167,121.5 208.5,121.5C 208.537,118.298 210.203,116.632 213.5,116.5 Z"/></g>
<g><path style="opacity:0.902" fill="#a82320" d="M 122.5,131.5 C 124.411,131.574 125.578,132.574 126,134.5C 127.197,140.589 128.697,146.589 130.5,152.5C 127.462,145.731 124.796,138.731 122.5,131.5 Z"/></g>
<g><path style="opacity:1" fill="#c40606" d="M 213.5,115.5 C 213.5,115.833 213.5,116.167 213.5,116.5C 210.203,116.632 208.537,118.298 208.5,121.5C 207.167,121.5 205.833,121.5 204.5,121.5C 203.58,123.881 203.58,126.214 204.5,128.5C 203.146,132.905 201.479,137.239 199.5,141.5C 198.509,145.445 198.176,149.445 198.5,153.5C 198.08,158.529 196.746,163.195 194.5,167.5C 193.351,167.791 192.684,168.624 192.5,170C 189.707,182.866 186.374,195.366 182.5,207.5C 184.61,214.253 187.943,220.253 192.5,225.5C 175.866,227.486 158.866,228.152 141.5,227.5C 143.476,224.026 145.309,220.359 147,216.5C 147.667,215.167 148.333,215.167 149,216.5C 150.022,215.646 150.855,214.646 151.5,213.5C 151.245,211.657 151.078,209.657 151,207.5C 150.623,206.058 149.79,205.058 148.5,204.5C 148.536,201.179 147.869,198.012 146.5,195C 146.741,193.016 147.408,191.183 148.5,189.5C 146.992,187.493 145.158,185.826 143,184.5C 140.747,175.904 137.747,167.571 134,159.5C 133.451,157.24 132.284,155.574 130.5,154.5C 130.5,153.833 130.5,153.167 130.5,152.5C 128.697,146.589 127.197,140.589 126,134.5C 125.578,132.574 124.411,131.574 122.5,131.5C 121.026,130.564 120.026,129.23 119.5,127.5C 118.238,123.809 116.571,120.309 114.5,117C 115.187,115.838 115.353,114.672 115,113.5C 113.817,114.731 112.651,114.731 111.5,113.5C 110.5,111.5 109.5,109.5 108.5,107.5C 127.833,106.167 147.167,106.167 166.5,107.5C 165.754,108.736 165.421,110.07 165.5,111.5C 162.314,117.218 158.648,122.552 154.5,127.5C 150.854,128.462 149.687,130.795 151,134.5C 154.952,143.292 158.452,152.292 161.5,161.5C 162.358,163.901 163.691,165.901 165.5,167.5C 167.896,173.022 169.896,178.689 171.5,184.5C 171.783,185.289 172.283,185.956 173,186.5C 174,184.833 175,183.167 176,181.5C 177.468,176.231 178.635,170.898 179.5,165.5C 181.201,162.074 182.534,158.407 183.5,154.5C 185.582,153.634 186.915,152.134 187.5,150C 184.777,143.113 187.11,139.447 194.5,139C 193.897,137.175 193.23,135.341 192.5,133.5C 191.808,134.025 191.308,134.692 191,135.5C 191.597,130.864 189.764,127.864 185.5,126.5C 182.331,122.167 179.664,117.5 177.5,112.5C 177.038,110.243 176.038,108.243 174.5,106.5C 188.15,105.501 201.817,105.167 215.5,105.5C 215.684,109.079 215.017,112.413 213.5,115.5 Z M 170.5,125.5 C 165.192,129.51 165.358,133.51 171,137.5C 175.768,133.257 175.602,129.257 170.5,125.5 Z"/></g>
<g><path style="opacity:0.969" fill="#ac2521" d="M 154.5,127.5 C 154.08,129.094 153.414,130.594 152.5,132C 156.942,143.83 161.275,155.663 165.5,167.5C 163.691,165.901 162.358,163.901 161.5,161.5C 158.452,152.292 154.952,143.292 151,134.5C 149.687,130.795 150.854,128.462 154.5,127.5 Z"/></g>
<g><path style="opacity:1" fill="#b71a15" d="M 185.5,126.5 C 189.764,127.864 191.597,130.864 191,135.5C 191.308,134.692 191.808,134.025 192.5,133.5C 193.23,135.341 193.897,137.175 194.5,139C 187.11,139.447 184.777,143.113 187.5,150C 186.915,152.134 185.582,153.634 183.5,154.5C 182.534,158.407 181.201,162.074 179.5,165.5C 181.794,154.156 184.794,142.99 188.5,132C 187.368,130.235 186.368,128.402 185.5,126.5 Z"/></g>
<g><path style="opacity:0.631" fill="#6a6a6a" d="M 251.5,128.5 C 250.502,152.328 250.169,176.328 250.5,200.5C 249.337,175.337 249.17,150.003 250,124.5C 250.791,125.745 251.291,127.078 251.5,128.5 Z"/></g>
<g><path style="opacity:0.451" fill="#cfcece" d="M 303.5,200.5 C 303.667,178.831 303.5,157.164 303,135.5C 302.243,137.315 301.41,138.981 300.5,140.5C 301.342,133.788 302.509,127.121 304,120.5C 304.83,147.336 304.664,174.003 303.5,200.5 Z"/></g>
<g><path style="opacity:0.996" fill="#af1e1a" d="M 130.5,154.5 C 132.284,155.574 133.451,157.24 134,159.5C 137.747,167.571 140.747,175.904 143,184.5C 145.158,185.826 146.992,187.493 148.5,189.5C 147.408,191.183 146.741,193.016 146.5,195C 147.869,198.012 148.536,201.179 148.5,204.5C 142.314,187.946 136.314,171.279 130.5,154.5 Z"/></g>
<g><path style="opacity:0.851" fill="#ab322e" d="M 179.5,165.5 C 178.635,170.898 177.468,176.231 176,181.5C 175,183.167 174,184.833 173,186.5C 172.283,185.956 171.783,185.289 171.5,184.5C 172.497,184.53 173.164,184.03 173.5,183C 175.038,176.882 177.038,171.049 179.5,165.5 Z"/></g>
<g><path style="opacity:0.009" fill="#fbfbfb" d="M -0.5,176.5 C 1.15976,197.143 5.99309,217.143 14,236.5C 43.3955,294.79 90.5622,327.79 155.5,335.5C 132.833,335.5 110.167,335.5 87.5,335.5C 87.3893,334.883 87.056,334.383 86.5,334C 87.624,333.751 88.624,333.251 89.5,332.5C 84.7665,331.852 80.2665,330.519 76,328.5C 75.8333,328.167 75.6667,327.833 75.5,327.5C 76.8333,326.5 78.1667,325.5 79.5,324.5C 79.2907,323.914 78.9574,323.414 78.5,323C 72.2201,319.613 66.0534,316.113 60,312.5C 55.3333,307.167 50.6667,301.833 46,296.5C 43.6317,291.234 40.7984,286.234 37.5,281.5C 33.1819,276.681 28.6819,272.015 24,267.5C 15.2188,248.57 7.55216,248.904 1,268.5C 0.188883,288.188 0.522216,307.855 2,327.5C 2.33333,328.167 2.66667,328.833 3,329.5C 6.24424,326.531 10.0776,325.364 14.5,326C 17.52,327.7 20.52,329.366 23.5,331C 22.1854,332.395 22.5188,333.395 24.5,334C 23.2625,334.232 22.2625,334.732 21.5,335.5C 14.1667,335.5 6.83333,335.5 -0.5,335.5C -0.5,282.5 -0.5,229.5 -0.5,176.5 Z M 5.5,331.5 C 7.33702,331.639 7.67036,332.306 6.5,333.5C 5.70245,333.043 5.36912,332.376 5.5,331.5 Z"/></g>
<g><path style="opacity:1" fill="#b61813" d="M 148.5,204.5 C 149.79,205.058 150.623,206.058 151,207.5C 151.078,209.657 151.245,211.657 151.5,213.5C 150.855,214.646 150.022,215.646 149,216.5C 148.333,215.167 147.667,215.167 147,216.5C 145.309,220.359 143.476,224.026 141.5,227.5C 158.866,228.152 175.866,227.486 192.5,225.5C 193.404,226.209 193.737,227.209 193.5,228.5C 175.833,228.5 158.167,228.5 140.5,228.5C 140.5,227.167 140.5,225.833 140.5,224.5C 142.967,218.902 145.967,213.569 149.5,208.5C 148.754,207.264 148.421,205.93 148.5,204.5 Z"/></g>
<g><path style="opacity:1" fill="#a71f1c" d="M 194.5,167.5 C 191.613,181.109 188.279,194.609 184.5,208C 188.308,215.273 192.641,222.273 197.5,229C 177.492,229.833 157.492,229.666 137.5,228.5C 138.035,226.739 139.035,225.406 140.5,224.5C 140.5,225.833 140.5,227.167 140.5,228.5C 158.167,228.5 175.833,228.5 193.5,228.5C 193.737,227.209 193.404,226.209 192.5,225.5C 187.943,220.253 184.61,214.253 182.5,207.5C 186.374,195.366 189.707,182.866 192.5,170C 192.684,168.624 193.351,167.791 194.5,167.5 Z"/></g>
<g><path style="opacity:0.984" fill="#a11817" d="M 269.5,245.5 C 285.992,244.503 302.658,244.17 319.5,244.5C 319.002,247.326 317.669,249.66 315.5,251.5C 316.15,249.565 316.483,247.565 316.5,245.5C 300.833,245.5 285.167,245.5 269.5,245.5 Z"/></g>
<g><path style="opacity:1" fill="#b71310" d="M 269.5,245.5 C 285.167,245.5 300.833,245.5 316.5,245.5C 316.483,247.565 316.15,249.565 315.5,251.5C 312.93,256.738 309.264,261.072 304.5,264.5C 305.449,262.263 306.116,259.929 306.5,257.5C 307.978,257.762 309.311,257.429 310.5,256.5C 312.827,253.526 314.16,250.192 314.5,246.5C 299.83,246.333 285.163,246.5 270.5,247C 268.671,247.273 267.171,248.107 266,249.5C 265.825,253.211 265.325,256.878 264.5,260.5C 263.914,260.709 263.414,261.043 263,261.5C 262.798,259.744 262.298,258.078 261.5,256.5C 259.441,259.193 256.774,260.86 253.5,261.5C 253.328,263.492 253.995,265.158 255.5,266.5C 249.177,269.05 242.844,271.383 236.5,273.5C 240.651,270.197 244.985,267.03 249.5,264C 256.409,257.917 263.076,251.751 269.5,245.5 Z"/></g>
<g><path style="opacity:0.941" fill="#a0322e" d="M 128.5,281.5 C 127.761,281.369 127.094,281.536 126.5,282C 128.618,283.049 130.284,284.549 131.5,286.5C 126.372,284.096 121.705,280.929 117.5,277C 121.372,277.934 125.039,279.434 128.5,281.5 Z"/></g>
<g><path style="opacity:1" fill="#b4231d" d="M 236.5,273.5 C 235.358,275.433 233.692,276.933 231.5,278C 230.207,278.49 228.873,278.657 227.5,278.5C 227.5,279.5 227.5,280.5 227.5,281.5C 221.389,283.756 215.056,285.089 208.5,285.5C 217.786,281.528 227.119,277.528 236.5,273.5 Z"/></g>
<g><path style="opacity:1" fill="#c40606" d="M 304.5,264.5 C 289.616,280.112 271.95,291.446 251.5,298.5C 247.209,298.787 243.042,298.787 239,298.5C 214.249,307.06 189.082,307.56 163.5,300C 159.29,298.778 155.29,297.112 151.5,295C 151.018,293.992 150.852,292.825 151,291.5C 149.817,292.731 148.651,292.731 147.5,291.5C 150.391,290.322 153.391,289.655 156.5,289.5C 157.167,289.5 157.833,289.5 158.5,289.5C 162.614,290.826 167.114,291.493 172,291.5C 183.348,291.602 194.515,290.269 205.5,287.5C 207.03,287.36 208.03,286.693 208.5,285.5C 215.056,285.089 221.389,283.756 227.5,281.5C 227.5,280.5 227.5,279.5 227.5,278.5C 228.873,278.657 230.207,278.49 231.5,278C 233.692,276.933 235.358,275.433 236.5,273.5C 242.844,271.383 249.177,269.05 255.5,266.5C 253.995,265.158 253.328,263.492 253.5,261.5C 256.774,260.86 259.441,259.193 261.5,256.5C 262.298,258.078 262.798,259.744 263,261.5C 263.414,261.043 263.914,260.709 264.5,260.5C 265.325,256.878 265.825,253.211 266,249.5C 267.171,248.107 268.671,247.273 270.5,247C 285.163,246.5 299.83,246.333 314.5,246.5C 314.16,250.192 312.827,253.526 310.5,256.5C 309.311,257.429 307.978,257.762 306.5,257.5C 306.116,259.929 305.449,262.263 304.5,264.5 Z"/></g>
<g><path style="opacity:1" fill="#b51f1a" d="M 128.5,281.5 C 137.853,284.501 147.186,287.168 156.5,289.5C 153.391,289.655 150.391,290.322 147.5,291.5C 148.651,292.731 149.817,292.731 151,291.5C 150.852,292.825 151.018,293.992 151.5,295C 155.29,297.112 159.29,298.778 163.5,300C 189.082,307.56 214.249,307.06 239,298.5C 243.042,298.787 247.209,298.787 251.5,298.5C 217.791,310.842 184.124,310.342 150.5,297C 143.815,293.994 137.481,290.494 131.5,286.5C 130.284,284.549 128.618,283.049 126.5,282C 127.094,281.536 127.761,281.369 128.5,281.5 Z"/></g>
<g><path style="opacity:0.994" fill="#b12822" d="M 208.5,285.5 C 208.03,286.693 207.03,287.36 205.5,287.5C 194.515,290.269 183.348,291.602 172,291.5C 167.114,291.493 162.614,290.826 158.5,289.5C 175.363,290.345 192.029,289.011 208.5,285.5 Z"/></g>
</svg>
